<svg width="16" height="15" viewBox="0 0 16 15" fill="none" xmlns="http://www.w3.org/2000/svg">
<path fill-rule="evenodd" clip-rule="evenodd" d="M14.9585 0.976982C14.3385 0.359284 13.5163 0.0175781 12.6369 0.0175781C11.7619 0.0175781 10.9353 0.359284 10.3153 0.976982L1.6402 9.62038C1.54347 9.71676 1.48631 9.83942 1.46432 9.97085L0.848755 14.2685C0.822373 14.4568 0.88393 14.6496 1.02023 14.7854C1.13455 14.9037 1.29724 14.9694 1.45993 14.9694C1.48631 14.9694 1.50829 14.9694 1.53468 14.965L5.91841 14.4218C6.05472 14.4043 6.18223 14.3429 6.27896 14.2466L14.9585 5.59877C16.238 4.31956 16.238 2.25181 14.9585 0.976982ZM5.55774 13.2257L2.18091 13.6419L2.65578 10.3431L10.0778 2.94824L12.9753 5.83522L5.55774 13.2257ZM13.8505 4.97662L14.0923 4.73567C14.4836 4.35016 14.6947 3.83322 14.6947 3.28999C14.6947 2.74239 14.4792 2.23421 14.0923 1.84432C13.7054 1.45442 13.1865 1.24414 12.6413 1.24414C12.0917 1.24414 11.5772 1.45442 11.1947 1.8487L10.9529 2.08964L13.8505 4.97662Z" fill="black"/>
</svg>
