<svg width="17" height="16" viewBox="0 0 17 16" fill="none" xmlns="http://www.w3.org/2000/svg">
<g filter="url(#filter0_i)">
<path fill-rule="evenodd" clip-rule="evenodd" d="M8.16845 0C3.75017 0 0.112305 3.58172 0.112305 8C0.112305 12.4183 3.75017 16 8.16845 16C12.5867 16 16.2246 12.4183 16.2246 8C16.2246 3.58172 12.5867 0 8.16845 0Z" fill="white"/>
</g>
<path d="M0.612305 8C0.612305 3.8624 4.02175 0.5 8.16845 0.5C12.3151 0.5 15.7246 3.8624 15.7246 8C15.7246 12.1376 12.3151 15.5 8.16845 15.5C4.02175 15.5 0.612305 12.1376 0.612305 8Z" stroke="#4666F4"/>
<path fill-rule="evenodd" clip-rule="evenodd" d="M8.16852 11C9.837 11 11.1896 9.65685 11.1896 8C11.1896 6.34315 9.837 5 8.16852 5C6.50003 5 5.14746 6.34315 5.14746 8C5.14746 9.65685 6.50003 11 8.16852 11Z" fill="#4666F4"/>
<defs>
<filter id="filter0_i" x="0.112305" y="0" width="16.1123" height="17" filterUnits="userSpaceOnUse" color-interpolation-filters="sRGB">
<feFlood flood-opacity="0" result="BackgroundImageFix"/>
<feBlend mode="normal" in="SourceGraphic" in2="BackgroundImageFix" result="shape"/>
<feColorMatrix in="SourceAlpha" type="matrix" values="0 0 0 0 0 0 0 0 0 0 0 0 0 0 0 0 0 0 127 0" result="hardAlpha"/>
<feOffset dy="2"/>
<feGaussianBlur stdDeviation="0.5"/>
<feComposite in2="hardAlpha" operator="arithmetic" k2="-1" k3="1"/>
<feColorMatrix type="matrix" values="0 0 0 0 0 0 0 0 0 0 0 0 0 0 0 0 0 0 0.0590183 0"/>
<feBlend mode="normal" in2="shape" result="effect1_innerShadow"/>
</filter>
</defs>
</svg>
